<?xml version="1.0" standalone="no"?>
<!DOCTYPE svg PUBLIC "-//W3C//DTD SVG 20010904//EN"
 "http://www.w3.org/TR/2001/REC-SVG-20010904/DTD/svg10.dtd">
<svg version="1.0" xmlns="http://www.w3.org/2000/svg"
 width="500.000000pt" height="500.000000pt" viewBox="0 0 500.000000 500.000000"
 preserveAspectRatio="xMidYMid meet">

<g transform="translate(0.000000,500.000000) scale(0.100000,-0.100000)"
fill="#000000" stroke="none">
<path d="M2363 4380 c-42 -91 -146 -218 -240 -293 -73 -58 -211 -146 -278
-177 -111 -51 -111 -42 0 21 96 55 128 82 253 205 78 78 142 147 142 153 0 6
-25 18 -57 27 -64 19 -145 14 -196 -13 l-31 -16 47 -43 c26 -23 47 -46 47 -51
0 -5 -22 -35 -49 -67 -71 -83 -224 -180 -350 -221 -104 -34 -224 -2 -415 110
-71 41 -131 73 -134 70 -2 -2 14 -34 37 -70 47 -75 181 -328 181 -343 0 -23
-45 -20 -96 8 -61 32 -141 46 -205 35 -33 -6 -56 -20 -100 -62 -71 -67 -99
-128 -100 -217 -1 -63 -2 -64 -43 -95 -43 -32 -106 -124 -106 -153 0 -33 -13
-48 -49 -58 -62 -18 -126 -73 -157 -137 -25 -50 -29 -70 -29 -147 0 -76 -3
-90 -20 -105 -60 -48 -114 -179 -117 -280 -3 -108 71 -284 133 -316 36 -19 37
-34 4 -65 -39 -37 -68 -124 -63 -193 4 -50 9 -62 41 -95 20 -21 37 -45 37 -53
0 -9 -14 -31 -31 -48 -52 -55 -70 -107 -59 -176 22 -146 78 -238 194 -318 16
-11 26 -27 26 -42 0 -13 15 -43 33 -67 26 -34 41 -44 75 -50 57 -10 62 -14 62
-56 1 -49 14 -65 85 -99 49 -23 59 -33 63 -57 3 -32 8 -36 90 -91 42 -29 52
-42 52 -64 0 -39 16 -55 100 -99 68 -35 85 -39 178 -46 122 -8 132 -11 132
-41 0 -41 37 -73 111 -96 66 -20 72 -20 117 -5 l47 16 53 -55 54 -55 113 0
113 0 29 35 c24 30 38 36 103 49 65 13 79 20 108 52 41 48 48 134 16 197 -18
33 -19 31 21 44 39 12 72 62 81 121 6 38 3 53 -15 84 l-21 37 23 16 c13 8 36
38 51 65 19 34 41 58 72 76 24 14 44 30 44 34 0 5 30 32 66 61 42 33 84 79
115 126 27 41 72 101 101 134 29 33 56 71 60 85 6 22 -1 19 -50 -27 -31 -30
-71 -77 -89 -104 -113 -180 -322 -318 -451 -299 -76 11 -174 91 -330 268 -102
117 -185 243 -296 447 -46 84 -96 272 -96 361 l0 68 75 61 c82 67 101 103 86
156 -13 45 -4 70 34 93 47 29 70 100 61 189 -5 58 -3 68 13 78 17 11 24 8 54
-22 19 -19 42 -35 51 -35 12 0 14 -7 10 -29 -5 -23 -2 -32 15 -41 49 -26 96 8
73 52 -7 13 -10 37 -8 55 3 18 0 45 -6 61 -10 25 -6 37 32 103 24 41 45 76 46
78 5 5 74 -32 74 -39 0 -3 13 -13 29 -23 28 -17 30 -16 86 13 53 28 58 29 85
15 16 -8 32 -19 35 -25 14 -23 100 -57 125 -49 54 15 80 10 111 -23 27 -31 29
-37 23 -89 -10 -86 29 -144 92 -137 25 3 25 2 28 -72 2 -43 15 -113 30 -165
15 -49 31 -115 35 -145 15 -99 71 -195 128 -219 16 -6 41 -30 57 -52 l28 -40
22 20 c27 25 61 29 52 5 -3 -8 -2 -12 4 -9 16 10 12 -5 -11 -36 -11 -16 -16
-29 -10 -29 9 0 37 31 90 100 30 39 36 16 12 -43 -26 -64 -105 -153 -143 -162
-43 -11 -58 0 -58 42 0 21 -4 44 -9 51 -18 29 -29 -530 -13 -614 10 -47 82
-144 136 -180 23 -16 66 -30 117 -39 44 -8 103 -21 132 -29 85 -24 253 -54
397 -72 74 -9 155 -22 180 -29 25 -8 79 -17 120 -21 76 -7 207 -47 291 -90 57
-28 128 -123 172 -228 37 -89 41 -93 33 -31 -3 27 -26 91 -51 142 -49 101 -81
133 -159 159 -25 9 -49 20 -52 25 -3 5 8 23 25 40 47 47 73 188 51 283 l-11
49 37 31 c20 17 51 36 68 42 45 16 68 88 70 219 1 108 -7 133 -59 188 -24 25
-25 31 -16 59 20 56 13 83 -34 141 -25 31 -45 65 -45 76 0 11 14 28 35 41 52
32 108 131 113 200 3 47 -1 65 -27 116 -35 70 -36 77 -17 93 20 17 46 102 46
151 0 50 -31 86 -82 95 l-35 7 -7 75 c-8 100 -38 160 -94 188 l-41 20 0 90
c-1 71 -6 105 -27 161 l-26 71 27 39 c25 36 26 46 23 125 -2 70 -7 92 -27 120
-34 50 -89 89 -125 89 -25 0 -43 11 -81 51 -28 28 -71 61 -96 74 -25 13 -54
35 -63 50 -26 39 -59 48 -140 35 l-69 -11 -27 30 c-15 16 -52 42 -81 57 -48
25 -65 28 -149 29 -84 0 -99 -3 -128 -24 -32 -22 -34 -22 -53 -5 -21 19 -20
19 -36 -17 -8 -19 -22 -28 -49 -34 -46 -8 -130 -61 -198 -124 -44 -41 -63 -51
-136 -71 -47 -12 -104 -22 -127 -21 -23 0 -72 -6 -110 -15 -37 -9 -99 -17
-138 -18 -73 -2 -132 -24 -168 -63 -15 -17 -27 -19 -90 -15 -65 4 -79 1 -123
-22 -27 -14 -57 -26 -67 -26 -10 0 -35 18 -56 40 -24 25 -47 40 -62 40 -40 0
-137 -26 -164 -44 -24 -16 -27 -16 -56 5 -40 28 -90 27 -162 -5 -67 -30 -83
-32 -95 -10 -5 8 -21 23 -36 33 -27 18 -27 18 101 26 70 4 216 8 323 9 108 1
201 6 208 10 7 4 103 16 215 26 146 14 227 27 292 46 50 14 110 30 135 35 161
32 310 96 391 167 44 39 128 177 115 189 -3 3 -27 -14 -53 -38 -59 -55 -103
-82 -168 -102 -82 -26 -352 -67 -475 -72 -124 -6 -122 -3 23 36 97 26 107 40
57 77 -70 52 -124 167 -160 340 l-17 87 -40 -85z m1546 -494 c7 -8 8 -17 3
-20 -14 -8 -50 5 -56 20 -7 19 38 19 53 0z m-84 -16 c-3 -5 -12 -10 -20 -10
-8 0 -17 5 -20 10 -4 6 5 10 20 10 15 0 24 -4 20 -10z m-1851 -1089 c3 -4 3
-11 0 -14 -8 -8 -34 3 -34 14 0 11 27 12 34 0z m1566 -1221 c0 -127 -29 -190
-114 -247 -43 -30 -56 -33 -120 -33 -61 0 -82 5 -143 34 -39 19 -74 39 -77 45
-4 5 19 -2 51 -17 48 -22 72 -27 138 -27 115 1 169 35 221 141 25 51 26 61 22
167 -4 107 -4 110 9 62 7 -27 13 -84 13 -125z"/>
<path d="M2512 4363 c-28 -6 -26 -12 32 -138 32 -68 54 -100 91 -133 56 -49
76 -56 151 -50 71 6 91 24 38 33 -70 12 -120 36 -162 77 -23 22 -42 43 -42 47
1 3 38 24 83 46 45 22 82 44 82 50 0 5 -19 22 -42 39 -38 26 -52 30 -125 32
-46 1 -93 0 -106 -3z"/>
<path d="M3001 4198 c14 -49 23 -53 63 -28 20 12 36 24 36 26 0 8 -68 34 -89
34 -17 0 -19 -4 -10 -32z"/>
<path d="M1556 4156 c-51 -36 -91 -87 -102 -130 -5 -23 -3 -26 20 -26 52 0 90
25 123 81 17 30 35 66 38 82 10 38 -19 36 -79 -7z"/>
</g>
</svg>
